# xmcd
#
# Track frame offsets: 
#        150
#        13280
#        25462
#        42372
#        54953
#        71053
#        87030
#        101093
#        114896
#        128137
#        142787
#        156497
#        169315
#        183200
#        197181
#        216774
#        229403
#        245162
#        259356
#        272388
#        285833
#        300614
#        314171
#        329976
#
# Disc length: 4647 seconds
#
# Revision: 3
# Processed by: cddbd v1.5.2PL0 Copyright (c) Steve Scherf et al.
# Submitted via: ExactAudioCopyFreeDBPlugin 1.0
#
DISCID=6b122518
DTITLE=Various Artist - Invictus Soul Box Set (Limited Edition 3-CD)
DYEAR=2006
DGENRE=Soul
TTITLE0=Fresa Payne - Band of Gold
TTITLE1=The Chairmen of the Board - Give Me Just a Little More Time
TTITLE2=Holland-Dozier - Why Can't We Be Lovers (ft Lamont Dozier)
TTITLE3=The Honey Cone - Want Ads
TTITLE4=The Chairmen of the Board - Finders Keepers
TTITLE5=The Flaming Ember - Watbound # 9
TTITLE6=100 Proof Aged In Soul - Somebody's Been Sleeping (In My Bed)
TTITLE7=Freda Payne - Deeper and Deeper
TTITLE8=The Chairmen of the Board - Working on a Building of Love
TTITLE9=Laura Lee - Women's Love Rights
TTITLE10=The Honey Cone - Stick-Up
TTITLE11=The Chairmen of the Board - Everything's Tuesday
TTITLE12=Thw 8th Day - She's Not Just Another Woman
TTITLE13=The Flaming Ember - I'm Not My Brother's Keeper
TTITLE14=The Chairmen of the Board - Elmo James
TTITLE15=The Glass House - Crumbs Off the Table
TTITLE16=The Honey Cone - One Monkey Don't Stop No Show (Part 1)
TTITLE17=The Chairmen of the Board - Pay to the Piper
TTITLE18=The 8th Day - You've Got to Crawl (Before You Walk)
TTITLE19=The Chairmen of the Board - (You've Got Me) Dangling on a Str
TTITLE19=ing
TTITLE20=Laura Lee - Rip Off
TTITLE21=The Honey Cone - The Day I Found Myself
TTITLE22=Freda Payne - Bring the Boys Home
TTITLE23=The Chairmen of the Board - I'n on My Way to a Better Place
EXTD=
EXTT0=
EXTT1=
EXTT2=
EXTT3=
EXTT4=
EXTT5=
EXTT6=
EXTT7=
EXTT8=
EXTT9=
EXTT10=
EXTT11=
EXTT12=
EXTT13=
EXTT14=
EXTT15=
EXTT16=
EXTT17=
EXTT18=
EXTT19=
EXTT20=
EXTT21=
EXTT22=
EXTT23=
PLAYORDER=
